# xmcd
#
# Track frame offsets: 
#        150
#        12600
#        42707
#        71805
#        100760
#        121367
#        131310
#        142550
#        163762
#
# Disc length: 2692 seconds
#
# Revision: 1
# Processed by: cddbd v1.5.2PL0 Copyright (c) Steve Scherf et al.
# Submitted via: ExactAudioCopy v0.99pb5
#
DISCID=7a0a8209
DTITLE=Led Zeppelin - Led Zeppelin
DYEAR=1975
DGENRE=Hard Rock
TTITLE0=Good Times Bad Times
TTITLE1=Babe I'm Gonna Leave You
TTITLE2=You Shook Me
TTITLE3=Dazed and Confused
TTITLE4=Your Time Is Gonna Come
TTITLE5=Black Mountain Side
TTITLE6=Communication Breakdown
TTITLE7=I Can't Quit You Baby
TTITLE8=How Many More Times
EXTD=YEAR: 1975
EXTT0=
EXTT1=
EXTT2=
EXTT3=
EXTT4=
EXTT5=
EXTT6=
EXTT7=
EXTT8=
PLAYORDER=
